<svg width="58" height="58" viewBox="0 0 58 58" fill="none" xmlns="http://www.w3.org/2000/svg">
<circle cx="29" cy="29" r="29" fill="url(#paint0_radial_189_55)"/>
<path d="M38.2392 18.0197C36.982 16.7501 35.4864 15.7414 33.8383 15.0516C32.1902 14.3618 30.422 14.0044 28.6353 14C26.8486 13.9956 25.0787 14.3443 23.4272 15.026C21.7757 15.7077 20.2752 16.709 19.0118 17.9724C17.7484 19.2357 16.7471 20.7363 16.0654 22.3878C15.3837 24.0393 15.0351 25.8092 15.0395 27.5959C15.0439 29.3825 15.4012 31.1507 16.0911 32.7989C16.7809 34.447 17.7895 35.9426 19.0591 37.1997C20.3162 38.4693 21.8118 39.478 23.46 40.1678C25.1081 40.8576 26.8763 41.215 28.663 41.2194C30.4496 41.2238 32.2196 40.8751 33.8711 40.1934C35.5226 39.5117 37.0231 38.5104 38.2865 37.2471C39.5498 35.9837 40.5511 34.4831 41.2328 32.8316C41.9145 31.1801 42.2632 29.4102 42.2588 27.6235C42.2544 25.8369 41.897 24.0687 41.2072 22.4205C40.5174 20.7724 39.5087 19.2768 38.2392 18.0197ZM17.0241 27.6097C17.0237 26.5808 17.1601 25.5565 17.4298 24.5636C17.8742 25.5202 18.5196 26.3467 18.9586 27.3282C19.5259 28.59 21.0493 28.24 21.722 29.3456C22.319 30.327 21.6814 31.5683 22.1282 32.5951C22.4528 33.3405 23.2181 33.5033 23.746 34.0483C24.2855 34.598 24.274 35.3512 24.3564 36.0681C24.4493 36.9104 24.6 37.7453 24.8074 38.5669C24.8074 38.5729 24.8074 38.5796 24.8123 38.5856C20.2816 36.9945 17.0241 32.6757 17.0241 27.6097ZM28.6491 39.2347C27.9999 39.2345 27.3518 39.1802 26.7116 39.0724C26.7183 38.9084 26.7213 38.7552 26.7377 38.6486C26.8848 37.6859 27.3668 36.7444 28.017 36.0239C28.6594 35.3131 29.5398 34.8323 30.0823 34.0259C30.6139 33.2388 30.7731 32.1792 30.5539 31.2595C30.2312 29.9008 28.3852 29.4473 27.3898 28.7104C26.8176 28.2866 26.3084 27.6315 25.557 27.5782C25.2107 27.554 24.9207 27.6285 24.5774 27.5401C24.2625 27.4583 24.0155 27.2888 23.6801 27.333C23.0534 27.4154 22.658 28.085 21.9847 27.9942C21.346 27.9088 20.6878 27.1611 20.5425 26.5526C20.356 25.7703 20.9748 25.5166 21.6378 25.447C21.9145 25.4179 22.2251 25.3864 22.4909 25.4881C22.8409 25.6177 23.0062 25.9604 23.3204 26.1336C23.9095 26.4569 24.0288 25.9404 23.9386 25.4173C23.8036 24.6338 23.6461 24.3147 24.3449 23.7753C24.8292 23.4035 25.2434 23.1347 25.1659 22.4669C25.1199 22.0745 24.9049 21.8971 25.1053 21.5066C25.2573 21.2093 25.6745 20.9411 25.9463 20.7637C26.6481 20.3059 28.9525 20.3398 28.011 19.0587C27.7343 18.6827 27.2239 18.0106 26.7395 17.9186C26.134 17.8041 25.8652 18.4798 25.4432 18.7777C25.0072 19.0859 24.1584 19.4359 23.7218 18.9594C23.1345 18.3182 24.1111 18.1081 24.3273 17.66C24.4272 17.4512 24.3273 17.1611 24.159 16.8881C24.3774 16.796 24.5994 16.7107 24.825 16.632C24.9664 16.7364 25.1342 16.7993 25.3094 16.8136C25.7144 16.8402 26.0965 16.6211 26.4501 16.8971C26.8424 17.1999 27.1252 17.5825 27.6459 17.677C28.1496 17.7684 28.683 17.4748 28.8078 16.9589C28.8835 16.6453 28.8078 16.3141 28.7351 15.9902C30.9996 16.0032 33.2103 16.6813 35.0925 17.9404C34.9714 17.8944 34.8267 17.8998 34.6481 17.9828C34.2806 18.1535 33.7599 18.5882 33.7169 19.0193C33.6679 19.5085 34.3896 19.5776 34.7323 19.5776C35.2469 19.5776 35.7682 19.3475 35.6023 18.7529C35.5303 18.495 35.4322 18.2268 35.2742 18.0645C35.6541 18.3281 36.018 18.614 36.364 18.9206C36.3586 18.9261 36.3531 18.9309 36.3477 18.937C35.9989 19.3003 35.5939 19.5879 35.3553 20.0298C35.187 20.3411 34.9975 20.4888 34.6566 20.5693C34.4689 20.6135 34.2546 20.6299 34.0971 20.7558C33.6588 21.1009 33.9082 21.9304 34.3236 22.1793C34.8485 22.4935 35.6272 22.3458 36.0231 21.8971C36.3325 21.5459 36.5148 20.9362 37.0712 20.9368C37.3162 20.9363 37.5515 21.0322 37.7263 21.2038C37.9564 21.4424 37.911 21.6652 37.96 21.9631C38.0466 22.4923 38.5134 22.2053 38.7974 21.9383C39.0044 22.3067 39.1911 22.686 39.3569 23.0747C39.0444 23.5246 38.7962 24.015 38.0448 23.4907C37.5949 23.1765 37.3182 22.7205 36.7533 22.5789C36.2599 22.4578 35.7543 22.5837 35.2669 22.6679C34.7129 22.7641 34.056 22.8065 33.6358 23.2261C33.2295 23.6306 33.0146 24.1719 32.5823 24.5781C31.7461 25.3652 31.3931 26.2244 31.9344 27.3372C32.4551 28.4071 33.5444 28.9878 34.7196 28.9115C35.8742 28.8346 37.0736 28.1649 37.0403 29.8427C37.0282 30.4366 37.1523 30.8478 37.3346 31.3993C37.5035 31.9079 37.492 32.4008 37.5308 32.9257C37.5676 33.5404 37.6637 34.1501 37.8177 34.7464C36.7325 36.1437 35.3423 37.2744 33.7532 38.0523C32.1642 38.8302 30.4184 39.2346 28.6491 39.2347Z" fill="#008000"/>
<defs>
<radialGradient id="paint0_radial_189_55" cx="0" cy="0" r="1" gradientUnits="userSpaceOnUse" gradientTransform="translate(29 29) rotate(90) scale(60)">
<stop/>
<stop offset="1" stop-color="#00FF00" stop-opacity="0"/>
</radialGradient>
</defs>
</svg>